<?xml version="1.0" encoding="UTF-8" standalone="no"?>
<svg
   xmlns:dc="http://purl.org/dc/elements/1.1/"
   xmlns:cc="http://creativecommons.org/ns#"
   xmlns:rdf="http://www.w3.org/1999/02/22-rdf-syntax-ns#"
   xmlns:svg="http://www.w3.org/2000/svg"
   xmlns="http://www.w3.org/2000/svg"
   xmlns:xlink="http://www.w3.org/1999/xlink"
   xmlns:sodipodi="http://sodipodi.sourceforge.net/DTD/sodipodi-0.dtd"
   xmlns:inkscape="http://www.inkscape.org/namespaces/inkscape"
   width="936"
   height="234"
   viewBox="0 0 247.65 61.912502"
   version="1.1"
   id="svg8"
   inkscape:version="1.0.2-2 (e86c870879, 2021-01-15)"
   sodipodi:docname="eat.svg"
   inkscape:export-filename="C:\EigDaten\privat\visuGames\assets\eat.png"
   inkscape:export-xdpi="96"
   inkscape:export-ydpi="96">
  <defs
     id="defs2">
    <linearGradient
       inkscape:collect="always"
       id="linearGradient1441-9">
      <stop
         style="stop-color:#970000;stop-opacity:0.98392278"
         offset="0"
         id="stop1439" />
      <stop
         style="stop-color:#000000;stop-opacity:0.98713827"
         offset="1"
         id="stop1437" />
    </linearGradient>
    <radialGradient
       inkscape:collect="always"
       xlink:href="#linearGradient1441-9"
       id="radialGradient1485-3"
       cx="30.23583"
       cy="35.382507"
       fx="30.23583"
       fy="35.382507"
       r="22.318092"
       gradientTransform="matrix(3.7794703,-0.02079126,0.01600241,2.9089406,473.58062,31.741868)"
       gradientUnits="userSpaceOnUse" />
    <radialGradient
       inkscape:collect="always"
       xlink:href="#linearGradient1441-9"
       id="radialGradient1607"
       cx="114.27539"
       cy="133.09979"
       fx="114.27539"
       fy="133.09979"
       r="83.833984"
       gradientTransform="matrix(1,0,0,0.77370881,0,30.119311)"
       gradientUnits="userSpaceOnUse" />
    <radialGradient
       inkscape:collect="always"
       xlink:href="#linearGradient1441-9"
       id="radialGradient1607-6"
       cx="114.27539"
       cy="133.09979"
       fx="114.27539"
       fy="133.09979"
       r="83.833984"
       gradientTransform="matrix(0.26458333,0,0,0.20471045,64.633928,6.6875974)"
       gradientUnits="userSpaceOnUse" />
  </defs>
  <sodipodi:namedview
     id="base"
     pagecolor="#ffffff"
     bordercolor="#666666"
     borderopacity="1.0"
     inkscape:pageopacity="0.0"
     inkscape:pageshadow="2"
     inkscape:zoom="0.98994949"
     inkscape:cx="362.61911"
     inkscape:cy="154.49575"
     inkscape:document-units="mm"
     inkscape:current-layer="layer1"
     inkscape:document-rotation="0"
     showgrid="false"
     inkscape:window-width="1920"
     inkscape:window-height="1001"
     inkscape:window-x="-9"
     inkscape:window-y="-9"
     inkscape:window-maximized="1"
     units="px">
    <sodipodi:guide
       position="0,61.912501"
       orientation="0,702"
       id="guide926" />
    <sodipodi:guide
       position="123.825,61.912501"
       orientation="-1,0"
       id="guide928"
       inkscape:label=""
       inkscape:locked="false"
       inkscape:color="rgb(0,0,255)" />
    <sodipodi:guide
       position="185.7375,0"
       orientation="0,-702"
       id="guide930" />
    <sodipodi:guide
       position="61.912501,72.603282"
       orientation="-1,0"
       id="guide932"
       inkscape:label=""
       inkscape:locked="false"
       inkscape:color="rgb(0,0,255)" />
  </sodipodi:namedview>
  <metadata
     id="metadata5">
    <rdf:RDF>
      <cc:Work
         rdf:about="">
        <dc:format>image/svg+xml</dc:format>
        <dc:type
           rdf:resource="http://purl.org/dc/dcmitype/StillImage" />
        <dc:title />
      </cc:Work>
    </rdf:RDF>
  </metadata>
  <g
     inkscape:label="Ebene 1"
     inkscape:groupmode="layer"
     id="layer1">
    <path
       id="path20-9-6"
       style="fill:#000000;fill-opacity:1;stroke:#000000;stroke-width:0.264583px;stroke-linecap:butt;stroke-linejoin:miter;stroke-opacity:1"
       d="m 233.11554,31.115299 c -11.94715,18.550489 -24.66885,18.081511 -33.14215,1.467433 11.0334,10.244599 21.76119,5.958152 33.14215,-1.467433 z"
       sodipodi:nodetypes="ccc"
       inkscape:export-xdpi="96"
       inkscape:export-ydpi="96" />
    <circle
       style="fill:#000000;fill-opacity:1;stroke-width:0.264583"
       id="path867-4"
       cx="204.3654"
       cy="17.684196"
       r="1.9377041"
       inkscape:export-xdpi="96"
       inkscape:export-ydpi="96" />
    <circle
       style="fill:#000000;fill-opacity:1;stroke-width:0.264583"
       id="path867-5-0"
       cx="226.08104"
       cy="17.884666"
       r="1.9377041"
       inkscape:export-xdpi="96"
       inkscape:export-ydpi="96" />
    <path
       id="path20-9"
       style="opacity:0.704607;mix-blend-mode:normal;fill:url(#radialGradient1607);fill-opacity:1;fill-rule:nonzero;stroke:none;stroke-width:1.00157;stroke-linecap:butt;stroke-linejoin:miter;stroke-miterlimit:4;stroke-dasharray:none;stroke-opacity:1"
       d="m 111.55273,68.244141 c -36.487176,0.455161 -72.371779,21.802521 -81.111324,66.099609 5.961195,19.26601 16.120687,34.39071 28.677735,45.17773 2.386132,-18.1865 16.454911,-45.20255 45.783199,-43.09375 0,0 5.42734,-0.10494 8.97071,2.85743 4.48765,-2.80701 8.9707,-2.67774 8.9707,-2.67774 23.82564,-7.13996 40.93218,25.29008 49.68945,36.91406 10.07151,-9.82564 18.87122,-22.51185 25.57618,-38.18359 C 189.91804,90.9502 150.39393,67.759614 111.55273,68.244141 Z m 40.66602,120.425779 c -8.44291,4.25839 -17.02503,7.07092 -26.14453,9.29297 8.92069,-1.5802 17.74116,-4.67181 26.14453,-9.29297 z"
       transform="scale(0.26458333)" />
    <circle
       style="fill:#000000;fill-opacity:1;stroke-width:0.264583"
       id="path867"
       cx="18.769569"
       cy="14.312323"
       r="1.9377041"
       inkscape:export-xdpi="96"
       inkscape:export-ydpi="96" />
    <circle
       style="fill:#000000;fill-opacity:1;stroke-width:0.264583"
       id="path867-5"
       cx="40.485214"
       cy="14.512793"
       r="1.9377041"
       inkscape:export-xdpi="96"
       inkscape:export-ydpi="96" />
    <rect
       style="fill:#ffffff;fill-opacity:1;stroke-width:0.137169"
       id="rect853"
       width="4.543582"
       height="5.3453908"
       x="33.8088"
       y="18.783691" />
    <rect
       style="fill:#ffffff;fill-opacity:1;stroke-width:0.137169"
       id="rect853-4"
       width="4.543582"
       height="5.3453908"
       x="22.455223"
       y="18.521793" />
    <path
       id="path1491"
       style="fill:#000000;fill-opacity:1;stroke:#000000;stroke-width:0.999999px;stroke-linecap:butt;stroke-linejoin:miter;stroke-opacity:1"
       d="m 119.88867,104.68555 c -3.94021,0.27641 -3.38516,4.22635 -1.05469,9.67968 2.36324,5.52999 -8.2832,2.35157 -8.2832,2.35157 2.88794,-5.26258 0.53167,-9.63435 -0.12305,-10.28907 -22.390712,0.82579 -26.924654,17.30039 -23.580074,32.79297 5.221808,-2.19048 11.222566,-3.28422 18.054684,-2.79297 0,0 5.42734,-0.10494 8.97071,2.85743 4.48765,-2.80701 8.9707,-2.67774 8.9707,-2.67774 6.49016,-1.94494 12.47868,-0.9327 17.94141,1.78125 l 0.20117,-0.0137 c 6.43393,-11.34144 -0.33797,-31.98584 -15.5586,-32.66016 -2.41288,-0.80429 -4.22566,-1.12143 -5.53906,-1.02929 z"
       transform="scale(0.26458333)" />
    <path
       style="fill:#eb0000;fill-opacity:1;stroke:none;stroke-width:0.289369px;stroke-linecap:butt;stroke-linejoin:miter;stroke-opacity:1;opacity:0.27238095"
       d="m 15.548309,48.570013 c 0.170833,-4.729715 3.84709,-13.074317 12.206951,-12.473215 0,0 1.436058,-0.02784 2.373575,0.755953 1.187358,-0.742687 2.373573,-0.708705 2.373573,-0.708705 6.484463,-1.943234 11.094769,7.209307 13.347218,10.033973 -4.957953,4.225026 -9.643328,5.692121 -15.222931,6.798843 -6.269429,-0.240527 -11.295557,-1.567736 -15.078386,-4.406849 z"
       id="path998-8-9-8"
       sodipodi:nodetypes="csccccc" />
    <rect
       style="fill:#ffffff;fill-opacity:1;stroke-width:0.137169"
       id="rect853-4-5"
       width="4.543582"
       height="5.3453908"
       x="34.081444"
       y="46.178822" />
    <rect
       style="fill:#ffffff;fill-opacity:1;stroke-width:0.137169"
       id="rect853-4-5-9"
       width="4.543582"
       height="5.3453908"
       x="22.599602"
       y="46.579723" />
    <path
       id="path20-9-7"
       style="fill:none;fill-opacity:1;stroke:#ea6700;stroke-width:1.365;stroke-linecap:butt;stroke-linejoin:miter;stroke-miterlimit:4;stroke-dasharray:none;stroke-opacity:1"
       d="M 52.416358,35.808311 C 42.416658,59.180994 14.871271,57.577377 8.0542129,35.545294 12.828072,11.348605 48.213128,13.031597 52.416358,35.808311 Z"
       sodipodi:nodetypes="ccc"
       inkscape:export-xdpi="96"
       inkscape:export-ydpi="96" />
    <path
       id="path20-9-3"
       style="opacity:0.791328;mix-blend-mode:normal;fill:url(#radialGradient1485-3);fill-opacity:1;stroke:none;stroke-width:1.00157;stroke-linecap:butt;stroke-linejoin:miter;stroke-miterlimit:4;stroke-dasharray:none;stroke-opacity:1"
       d="M 585.24219 89.294922 C 556.49801 89.374254 528.02974 103.85052 504.58594 134.6543 C 514.25968 149.03419 525.40406 160.3837 537.55664 168.4707 C 537.9281 158.4521 541.01045 148.97375 549.21875 142.98242 A 39.642857 39.642857 0 0 1 548.26562 134.34961 A 39.642857 39.642857 0 0 1 587.9082 94.707031 A 39.642857 39.642857 0 0 1 627.55078 134.34961 A 39.642857 39.642857 0 0 1 625.90625 145.6543 C 631.56815 151.89061 635.68715 159.60248 639.58008 164.48438 C 639.0079 164.972 638.47617 165.38754 637.92383 165.83984 C 649.52384 158.33357 661.04867 148.3168 672.25391 135.64844 C 646.7523 105.44044 615.84086 89.210487 585.24219 89.294922 z M 549.30273 175.11523 C 569.18365 184.49396 591.16691 185.73877 613.50781 177.95117 C 607.51601 179.05624 600.9871 179.47825 592.04492 181.25195 C 574.53849 180.58031 560.96647 179.79849 549.30273 175.11523 z "
       transform="scale(0.26458333)" />
    <circle
       style="fill:#000000;fill-opacity:1;stroke-width:0.264583"
       id="path867-9"
       cx="144.22046"
       cy="14.394258"
       r="1.9377041"
       inkscape:export-xdpi="96"
       inkscape:export-ydpi="96" />
    <circle
       style="fill:#000000;fill-opacity:1;stroke-width:0.264583"
       id="path867-5-3"
       cx="165.93611"
       cy="14.594728"
       r="1.9377041"
       inkscape:export-xdpi="96"
       inkscape:export-ydpi="96" />
    <rect
       style="fill:#ffffff;fill-opacity:1;stroke-width:0.137169"
       id="rect853-48"
       width="4.543582"
       height="5.3453908"
       x="158.48209"
       y="23.62813" />
    <rect
       style="fill:#ffffff;fill-opacity:1;stroke-width:0.137169"
       id="rect853-4-8"
       width="4.543582"
       height="5.3453908"
       x="147.90611"
       y="24.424566" />
    <path
       id="path998-2-0-8"
       style="opacity:0.306667;fill:#eb0000;fill-opacity:1;stroke:none;stroke-width:1.09368px;stroke-linecap:butt;stroke-linejoin:miter;stroke-opacity:1"
       d="M 549.16992 143.01953 C 540.98542 149.02354 537.91845 158.50796 537.55664 168.52539 C 551.85395 179.2559 568.34944 180.34286 592.04492 181.25195 C 613.13317 177.06907 620.84137 180.45301 639.58008 164.48438 C 635.69943 159.61788 631.59507 151.93883 625.96094 145.71289 A 39.642857 39.642857 0 0 1 587.9082 174.24609 A 39.642857 39.642857 0 0 1 549.16992 143.01953 z "
       transform="scale(0.26458333)"
       inkscape:export-xdpi="96"
       inkscape:export-ydpi="96" />
    <rect
       style="fill:#ffffff;fill-opacity:1;stroke-width:0.137169"
       id="rect853-4-5-95"
       width="4.543582"
       height="5.3453908"
       x="159.53233"
       y="41.498253" />
    <rect
       style="fill:#ffffff;fill-opacity:1;stroke-width:0.137169"
       id="rect853-4-5-9-9"
       width="4.543582"
       height="5.3453908"
       x="148.05049"
       y="41.899155" />
    <path
       id="path20-9-7-2"
       style="fill:none;fill-opacity:1;stroke:#ea6700;stroke-width:1.365;stroke-linecap:butt;stroke-linejoin:miter;stroke-miterlimit:4;stroke-dasharray:none;stroke-opacity:1"
       d="m 177.86726,35.890247 c -13.79134,15.715901 -32.82039,16.004928 -44.36215,-0.263018 14.40101,-17.023501 31.84344,-15.61563 44.36215,0.263018 z"
       sodipodi:nodetypes="ccc"
       inkscape:export-xdpi="96"
       inkscape:export-ydpi="96" />
    <path
       style="fill:#eb0000;fill-opacity:1;stroke:none;stroke-width:0.289369px;stroke-linecap:butt;stroke-linejoin:miter;stroke-opacity:1"
       d="m 17.544282,85.124266 c 0.170833,-4.729715 3.84709,-13.074317 12.206951,-12.473215 0,0 1.436058,-0.02784 2.373575,0.755953 1.187358,-0.742687 2.373573,-0.708705 2.373573,-0.708705 6.484463,-1.943234 11.094769,7.209307 13.347218,10.033973 -4.957953,4.225026 -9.643328,5.692121 -15.222931,6.798843 -6.269429,-0.240527 -11.295557,-1.567736 -15.078386,-4.406849 z"
       id="path998-8-9"
       sodipodi:nodetypes="csccccc" />
    <path
       style="fill:#eb0000;fill-opacity:1;stroke:none;stroke-width:0.289369px;stroke-linecap:butt;stroke-linejoin:miter;stroke-opacity:1"
       d="m 146.44621,101.60947 c 0.17083,-4.729718 2.61866,-9.011077 10.97852,-8.409974 0,0 1.43606,-0.02784 2.37358,0.755953 1.18736,-0.742687 2.37357,-0.708705 2.37357,-0.708705 6.48447,-1.943234 9.01591,4.46898 11.26836,7.293646 -4.95795,4.22503 -6.99751,3.32977 -12.57711,4.43649 -6.26943,-0.24053 -10.63409,-0.5283 -14.41692,-3.36741 z"
       id="path998-2-0"
       sodipodi:nodetypes="csccccc" />
    <path
       id="path20-9-4"
       style="opacity:0.704607;mix-blend-mode:normal;fill:url(#radialGradient1607-6);fill-opacity:1;fill-rule:nonzero;stroke:none;stroke-width:0.264999;stroke-linecap:butt;stroke-linejoin:miter;stroke-miterlimit:4;stroke-dasharray:none;stroke-opacity:1"
       d="m 94.148918,16.774792 c -9.65389,0.120428 -19.148364,5.768584 -21.460701,17.488855 1.577232,5.097465 4.265265,9.099209 7.58765,11.953274 0.358005,-2.728621 1.71123,-6.207304 4.229721,-8.607226 a 10.488839,10.488839 0 0 1 -0.40566,-2.88871 10.488839,10.488839 0 0 1 10.48876,-10.489284 10.488839,10.488839 0 0 1 10.488772,10.489284 10.488839,10.488839 0 0 1 -0.35037,2.686656 c 2.44109,2.351018 4.31562,5.575027 5.55625,7.22178 2.66475,-2.5997 4.99301,-5.95626 6.76703,-10.102741 C 114.88308,22.782437 104.42566,16.646595 94.148918,16.774792 Z m 10.759552,31.862654 c -2.23385,1.126699 -4.50454,1.870848 -6.917402,2.458765 2.360262,-0.418095 4.694012,-1.236083 6.917402,-2.458765 z" />
    <circle
       style="fill:#000000;fill-opacity:1;stroke-width:0.264583"
       id="path867-56"
       cx="83.403496"
       cy="13.030851"
       r="1.9377041"
       inkscape:export-xdpi="96"
       inkscape:export-ydpi="96" />
    <circle
       style="fill:#000000;fill-opacity:1;stroke-width:0.264583"
       id="path867-5-1"
       cx="105.11914"
       cy="13.231321"
       r="1.9377041"
       inkscape:export-xdpi="96"
       inkscape:export-ydpi="96" />
    <rect
       style="fill:#ffffff;fill-opacity:1;stroke-width:0.137169"
       id="rect853-8"
       width="4.543582"
       height="5.3453908"
       x="98.442726"
       y="17.502222" />
    <rect
       style="fill:#ffffff;fill-opacity:1;stroke-width:0.137169"
       id="rect853-4-9"
       width="4.543582"
       height="5.3453908"
       x="87.089149"
       y="17.240324" />
    <path
       id="path1491-25"
       style="fill:#000000;fill-opacity:1;stroke:#000000;stroke-width:0.264583px;stroke-linecap:butt;stroke-linejoin:miter;stroke-opacity:1"
       d="m 98.350448,62.970834 c -1.04252,0.07313 -0.89566,1.118222 -0.27906,2.561082 0.62528,1.463143 -2.19159,0.622187 -2.19159,0.622187 0.7641,-1.392391 0.14067,-2.549089 -0.0326,-2.722317 -5.92421,0.21849 -7.12382,4.577395 -6.2389,8.676473 1.38161,-0.579564 2.96931,-0.86895 4.77697,-0.738973 0,0 1.43598,-0.02777 2.3735,0.756028 1.18736,-0.742688 2.3735,-0.708485 2.3735,-0.708485 1.717192,-0.514599 3.301652,-0.246777 4.747002,0.471289 l 0.0532,-0.0036 c 1.70231,-3.000756 -0.0894,-8.46292 -4.116552,-8.641334 -0.63841,-0.212801 -1.11804,-0.296711 -1.46554,-0.272333 z" />
    <path
       id="path998-8-9-6"
       style="opacity:0.274286;fill:#eb0000;fill-opacity:1;stroke:none;stroke-width:0.289369px;stroke-linecap:butt;stroke-linejoin:miter;stroke-opacity:1"
       d="m 104.76171,36.766854 a 10.488839,10.488839 0 0 1 -10.267592,8.348327 10.488839,10.488839 0 0 1 -10.15287,-7.856884 c -2.691874,2.724811 -3.975002,6.685488 -4.074166,9.430948 3.782826,2.839114 8.808716,4.166439 15.078146,4.406966 5.579612,-1.106723 10.264892,-2.574041 15.222852,-6.799069 -1.24353,-1.559433 -3.20693,-5.045348 -5.80637,-7.530288 z" />
    <rect
       style="fill:#ffffff;fill-opacity:1;stroke-width:0.137169"
       id="rect853-4-5-1"
       width="4.543582"
       height="5.3453908"
       x="98.71537"
       y="44.897354" />
    <rect
       style="fill:#ffffff;fill-opacity:1;stroke-width:0.137169"
       id="rect853-4-5-9-2"
       width="4.543582"
       height="5.3453908"
       x="87.233528"
       y="45.298256" />
    <path
       id="path20-9-7-22"
       style="fill:none;fill-opacity:1;stroke:#ea6700;stroke-width:1.365;stroke-linecap:butt;stroke-linejoin:miter;stroke-miterlimit:4;stroke-dasharray:none;stroke-opacity:1"
       d="M 117.05029,34.526841 C 107.05059,57.899524 79.505199,56.295907 72.688141,34.263824 77.462,10.067134 112.84706,11.750127 117.05029,34.526841 Z"
       sodipodi:nodetypes="ccc"
       inkscape:export-xdpi="96"
       inkscape:export-ydpi="96" />
    <path
       style="fill:#eb0000;fill-opacity:1;stroke:none;stroke-width:0.289369px;stroke-linecap:butt;stroke-linejoin:miter;stroke-opacity:1"
       d="m 82.178282,83.842576 c 0.170833,-4.729715 3.847086,-13.074317 12.206956,-12.473215 0,0 1.43605,-0.02784 2.37357,0.755953 1.18736,-0.742687 2.37357,-0.708705 2.37357,-0.708705 6.484472,-1.943234 11.094772,7.209307 13.347222,10.033973 -4.95795,4.225026 -9.64333,5.692121 -15.222932,6.798843 -6.26943,-0.240527 -11.29556,-1.567736 -15.078386,-4.406849 z"
       id="path998-8-9-9"
       sodipodi:nodetypes="csccccc" />
    <circle
       style="opacity:0.704607;fill:#00ff00;stroke-width:0.202861"
       id="path862-8"
       cx="97.139893"
       cy="99.449188"
       r="10.488839" />
    <path
       id="path1491-2-6"
       style="fill:#000000;fill-opacity:1;stroke:#000000;stroke-width:0.264583px;stroke-linecap:butt;stroke-linejoin:miter;stroke-opacity:1"
       d="m 161.39006,84.801265 c -1.04251,0.07313 -0.89565,1.117706 -0.27905,2.560566 0.62528,1.463143 -2.1916,0.622184 -2.1916,0.622184 0.76411,-1.392388 0.14068,-2.54857 -0.0326,-2.721798 -5.71638,0.210825 -7.03424,4.276304 -6.32468,8.243943 1.33983,-0.322839 2.94347,-0.444407 4.86224,-0.306443 0,0 1.4365,-0.02777 2.37401,0.756028 1.18736,-0.742688 2.3735,-0.709001 2.3735,-0.709001 1.97656,-0.592328 3.5844,-0.406072 4.93045,0.216008 1.47143,-3.043914 -0.32947,-8.216124 -4.24677,-8.38967 -0.63841,-0.212804 -1.11804,-0.296195 -1.46555,-0.271817 z" />
  </g>
</svg>
